<svg height="163" viewBox="0 0 141 163" width="141" xmlns="http://www.w3.org/2000/svg" xmlns:xlink="http://www.w3.org/1999/xlink"><defs><linearGradient id="a" x1="25.958869%" x2="19.485928%" y1="50%" y2="0%"><stop offset="0" stop-color="#eee" stop-opacity="0"/><stop offset="1" stop-color="#737373" stop-opacity=".139464"/></linearGradient><linearGradient id="b" x1="50%" x2="50%" y1="0%" y2="100%"><stop offset=".0505780347" stop-color="#996c56"/><stop offset="1" stop-color="#b17c63"/></linearGradient><path id="c" d="m2.54742991 0h71.45494059c1.1045695 0 2 .8954305 2 2 0 .09995599-.0074934.19977135-.0224172.29860697l-4.3150554 28.57729553c-.2953982 1.9563321-1.9766574 3.402786-3.9551657 3.402786h-60.36287733c-1.50792978 0-2.78152929-1.1193227-2.97516331-2.6147685l-3.80770386-29.407099c-.14183832-1.09542488.63119633-2.09842488 1.72662121-2.2402632.08516275-.01102709.1709473-.0165578.256821-.0165578z"/><path id="d" d="m8.38709677 0h48.59723503c4.6320656 0 8.3870968 3.75503113 8.3870968 8.38709677v.38709678c0 4.41827795-3.581722 7.99999995-8 7.99999995h-49.3714286c-4.418278 0-8-3.581722-8-7.99999995v-.38709678c0-4.63206564 3.75503113-8.38709677 8.38709677-8.38709677z"/><path id="e" d="m9.34513274 0h70.29208846l8.3627788 12.5806452h-88z"/><mask id="f" fill="#fff"><use fill="#fff" fill-rule="evenodd" xlink:href="#c"/></mask><mask id="g" fill="#fff"><use fill="#fff" fill-rule="evenodd" xlink:href="#d"/></mask><mask id="h" fill="#fff"><use fill="#fff" fill-rule="evenodd" xlink:href="#e"/></mask></defs><g fill="none" fill-rule="evenodd" transform="translate(3)"><path d="m16 126.912753c-.0186477 7.605082 5.648019 17.10178 17 28.490095s28.0186477 24.296431 50 38.72435l122.5-27.237835c-19.848006-13.909617-41.38138-25.405735-64.600123-34.488353-23.218742-9.082618-44.4716048-14.323455-63.7585885-15.722512z" fill="url(#a)"/><g transform="translate(6 24)"><path d="m0 .83606557h77.3191489l-11.3439255 99.49180343h-54.209266z" fill="#fff"/><path d="m49.5637435.38735203-6.3172377 101.10969697h24.0722298l11.3136369-101.10969697z" fill="#efefef"/><path d="m-2.25045814-1.16393443h81.81060274l-11.1933876 98.17151153c-.3455995 3.0310769-2.9106594 5.3202919-5.9613754 5.3202919h-47.9733004c-2.5342764 0-4.66776764-1.896051-4.96539858-4.4127893z" stroke="#2a4a63" stroke-linejoin="round" stroke-width="4"/><g transform="translate(.840426 40.131148)"><use fill="url(#b)" xlink:href="#c"/><path d="m41.3366054-.37940887-2.5905319 35.80783347h34.4216647l5.2761694-35.80783347z" fill="#805b4c" fill-opacity=".585796" mask="url(#f)"/><g stroke-width="3"><path d="m4.62234043 8.77868852h10.92553187" stroke="#4d3737" stroke-linecap="round"/><path d="m20.5904255 8.77868852h31.9361702" stroke="#4d3737" stroke-linecap="round"/><path d="m56.7287234 8.77868852h5.8829787" stroke="#4d3737" stroke-linecap="round"/><path d="m66.8138298 8.77868852h4.2021276" stroke="#4d3737" stroke-linecap="round"/><path d="m3.38580452-1.5h68.93821778c1.9329966 0 3.5 1.56700338 3.5 3.5 0 .16916334-.0122641.3381041-.0366958.50549385l-4.1696357 28.56754215c-.3943915 2.7021057-2.711599 4.7056525-5.4423352 4.7056525h-58.11718258c-2.26918197 0-4.18334605-1.6895191-4.4651616-3.9411334l-3.68011037-29.4028811c-.24006383-1.91803162 1.12019784-3.66751365 3.03822946-3.90757747.14418835-.01804684.28936066-.02709653.43467401-.02709653z" stroke="#2a4a63" stroke-linejoin="round"/></g></g></g><g transform="translate(10.895238)"><use fill="#fff" xlink:href="#d"/><path d="m47.5105112-21.4178746-6.8982031 101.4294619h26.2860348l12.3540966-101.4294619z" fill="#efefef" mask="url(#g)"/><g stroke="#2a4a63"><path d="m8.38709677 2c-3.52749614 0-6.38709677 2.85960063-6.38709677 6.38709677v.38709678c0 3.31370845 2.6862915 5.99999995 6 5.99999995h49.3714286c3.3137085 0 6-2.6862915 6-5.99999995v-.38709678c0-3.52749614-2.8596007-6.38709677-6.3870968-6.38709677z" stroke-width="4"/><path d="m53.6380952 6.29032258h8.8" stroke-linecap="square" stroke-width="2"/></g></g><g transform="translate(0 13.419355)"><use fill="#fff" xlink:href="#e"/><path d="m55.8914636-2.96626165-6.8982031 101.42946185h26.2860348l12.3540966-101.42946185z" fill="#efefef" mask="url(#h)"/></g><g stroke="#2a4a63" stroke-width="4"><path d="m8.24462173 11.4193548h71.71191637l6.8348769 10.3809944c1.2148336 1.8451219.703884 4.3257058-1.1412378 5.5405394-.6530406.4299638-1.4177743.6591114-2.1996508.6591114h-79.49604152c-2.209139 0-4-1.790861-4-4 0-.8529142.27262883-1.6834984.77808754-2.3705021z" stroke-linejoin="round"/><path d="m3.35238095 19.7096774h36.03809525" stroke-linecap="round"/><path d="m56.9904762 19.7096774h27.6571428" stroke-linecap="round"/><path d="m44.4190476 19.7096774h7.5428572" stroke-linecap="round"/></g></g></svg>