<svg height="168" viewBox="0 0 142 168" width="142" xmlns="http://www.w3.org/2000/svg" xmlns:xlink="http://www.w3.org/1999/xlink"><defs><linearGradient id="a" x1="25.958869%" x2="19.485928%" y1="50%" y2="0%"><stop offset="0" stop-color="#eee" stop-opacity="0"/><stop offset="1" stop-color="#737373" stop-opacity=".139464"/></linearGradient><path id="b" d="m2.54742991 0h71.45494059c1.1045695 0 2 .8954305 2 2 0 .09995599-.0074934.19977135-.0224172.29860697l-4.3150554 28.57729553c-.2953982 1.9563321-1.9766574 3.402786-3.9551657 3.402786h-60.36287733c-1.50792978 0-2.78152929-1.1193227-2.97516331-2.6147685l-3.80770386-29.407099c-.14183832-1.09542488.63119633-2.09842488 1.72662121-2.2402632.08516275-.01102709.1709473-.0165578.256821-.0165578z"/><path id="c" d="m8.80645161 0h53.70138249c4.8636689 0 8.8064516 3.94278269 8.8064516 8.80645161v.80645162c0 4.41827797-3.581722 7.99999997-8 7.99999997h-55.3142857c-4.418278 0-8-3.581722-8-7.99999997v-.80645162c0-4.86366892 3.94278269-8.80645161 8.80645161-8.80645161z"/><path id="d" d="m10.1946903 0h76.6822782l9.1230315 13.5483871h-96z"/><mask id="e" fill="#fff"><use fill="#fff" fill-rule="evenodd" xlink:href="#b"/></mask><mask id="f" fill="#fff"><use fill="#fff" fill-rule="evenodd" xlink:href="#c"/></mask><mask id="g" fill="#fff"><use fill="#fff" fill-rule="evenodd" xlink:href="#d"/></mask></defs><g fill="none" fill-rule="evenodd" transform="translate(1)"><path d="m19 131.912753c-.0186477 7.605082 5.648019 17.10178 17 28.490095s28.0186477 24.296431 50 38.72435l122.5-27.237835c-19.848006-13.909617-41.38138-25.405735-64.600123-34.488353-23.218742-9.082618-44.4716048-14.323455-63.7585885-15.722512z" fill="url(#a)"/><g transform="translate(9 29)"><path d="m0 .83606557h77.3191489l-11.3439255 99.49180343h-54.209266z" fill="#fff"/><path d="m49.5637435.38735203-6.3172377 101.10969697h24.0722298l11.3136369-101.10969697z" fill="#efefef"/><path d="m-1.12522907-.16393443h79.56487587l-11.0664524 97.05822683c-.2879996 2.5258977-2.4255495 4.4335766-4.9678128 4.4335766h-47.9733004c-2.0274211 0-3.7342141-1.5168406-3.9723189-3.5302314z" stroke="#000" stroke-linejoin="round" stroke-width="2"/><g transform="translate(.840426 40.131148)"><use fill="#dbdbdb" xlink:href="#b"/><path d="m41.3366054-.37940887-2.5905319 35.80783347h34.4216647l5.2761694-35.80783347z" fill="#9a9a9a" mask="url(#e)"/><g stroke="#000" stroke-width="2"><path d="m4.62234043 8.77868852h10.92553187" stroke-linecap="round"/><path d="m20.5904255 8.77868852h31.9361702" stroke-linecap="round"/><path d="m56.7287234 8.77868852h5.8829787" stroke-linecap="round"/><path d="m66.8138298 8.77868852h4.2021276" stroke-linecap="round"/><path d="m3.38580452-1h68.93821778c1.6568542 0 3 1.34314575 3 3 0 .14499715-.0105121.28980352-.0314535.43328044l-4.1696357 28.56754216c-.3585378 2.4564597-2.46509 4.2778659-4.9475775 4.2778659h-58.11718258c-2.01705064 0-3.71852982-1.5017948-3.96903253-3.5032297l-3.68011037-29.40288108c-.205769-1.64402711.96016957-3.14358313 2.60419668-3.34935212.12359001-.01546872.24802342-.0232256.37257772-.0232256z" stroke-linejoin="round"/></g></g></g><g transform="translate(12)"><use fill="#fff" xlink:href="#c"/><path d="m51.8296486-22.4887683-7.5253125 106.5009349h28.6756743l13.4771963-106.5009349z" fill="#efefef" mask="url(#f)"/><g stroke="#000"><path d="m8.80645161 4.15c-4.31138417 0-7.80645161 3.49506744-7.80645161 7.8064516v.8064516c0 3.8659933 3.13400675 7 7 7h55.3142857c3.8659933 0 7-3.1340067 7-7v-.8064516c0-4.31138416-3.4950674-7.8064516-7.8064516-7.8064516z" stroke-width="2"/><path d="m58.5142857 7.65483871h9.6" stroke-linecap="square"/></g></g><g transform="translate(0 14)"><use fill="#fff" xlink:href="#d"/><path d="m60.9725057-3.19443563-7.5253124 109.23172763h28.6756743l13.4771963-109.23172763z" fill="#efefef" mask="url(#g)"/></g><g stroke="#000" stroke-width="2"><path d="m9.57651399 13h76.94052001l7.3347088 11.3741609c.8979262 1.392442.4970419 3.2491522-.8954001 4.1470783-.4846646.3125394-1.049141.4787608-1.6258391.4787608h-87.42411312c-1.65685425 0-3-1.3431458-3-3 0-.6295447.19804749-1.2431366.56609752-1.7538867z" stroke-linejoin="round"/><path d="m4 21.5h39" stroke-linecap="round"/><path d="m61.9278912 21.4193548h29.996483" stroke-linecap="round"/><path d="m48.9 21.5h8.1" stroke-linecap="round"/></g></g></svg>