<svg height="239" viewBox="0 0 375 239" width="375" xmlns="http://www.w3.org/2000/svg" xmlns:xlink="http://www.w3.org/1999/xlink"><defs><path id="a" d="m0 0h71.8964053 177.1035947v158h-249z"/><filter id="b" height="100.6%" width="100.4%" x="-.2%" y="-.3%"><feOffset dx="0" dy="1" in="SourceAlpha" result="shadowOffsetInner1"/><feComposite in="shadowOffsetInner1" in2="SourceAlpha" k2="-1" k3="1" operator="arithmetic" result="shadowInnerInner1"/><feColorMatrix in="shadowInnerInner1" type="matrix" values="0 0 0 0 0   0 0 0 0 0   0 0 0 0 0  0 0 0 0.5 0"/></filter></defs><g fill="none" fill-rule="evenodd"><g transform="translate(55 1)"><path d="m0 1h261v172h-261z" fill="#fff"/><path d="m1.5 1h258" stroke="#fff" stroke-linecap="square" stroke-width="3"/><path d="m-1 0h263v174h-263z" stroke="#000" stroke-linecap="square" stroke-linejoin="round" stroke-width="2"/><g opacity=".825358" transform="translate(6 9)"><use fill="#e90d69" fill-rule="evenodd" xlink:href="#a"/><use fill="#000" filter="url(#b)" xlink:href="#a"/></g><path d="m46.693326 83.173336c0 1.786665-1.0933323 2.7599974-2.826664 2.9733305v.8666659h-1.1333322v-.8266659c-1.1866656-.0799999-2.2799979-.6133328-2.6399975-1.3066654l.7866659-.7333327c.4133329.5866661 1.0266657.9199992 1.8533316 1.0133324v-4.0533295c-1.5733319-.4933328-2.5733309-1.4799986-2.5733309-2.8933305 0-1.4666653 1.039999-2.5599976 2.5733309-2.7733307v-.6399994h1.1333322v.6266661c1.0533324.1333332 1.9599982.6133327 2.4399977 1.333332l-.746666.706666c-.5733327-.6399994-1.039999-.9333324-1.6933317-.999999v3.7599964c1.9066649.3999996 2.826664 1.1466655 2.826664 2.9466638zm-1.079999.1066666c.0266667-1.2266655-.6133327-1.6799984-1.746665-1.9199982v3.7866631c1.079999-.1599999 1.7199984-.7199993 1.746665-1.8666649zm-4.3866625-5.1199951c0 .7999992.4933329 1.3866653 1.5066653 1.7599983v-3.4133301c-.9599991.1866665-1.5066653.7599993-1.5066653 1.6533318zm21.6799962.0266666c1.3466653 0 1.6533317 1.0133324 1.6533317 2.3599978v5.4533281h-1.079999v-5.7333279c0-.5866661-.3066663-1.0799989-.8799991-1.0799989-.3466664 0-.6399994.2799997-.9866657 1.0799989.0133333.1333332.0133333.2666664.0133333.413333v5.3199949h-1.079999v-5.5999947c0-.5866661-.3066664-1.0799989-.8799992-1.0799989-.4133329 0-.6533327.3199997-.9733324.9733324v4.826662c0 .2933331 0 .6133328.08.8799992h-1.2133322v-7.5999928h1.1333322v.6799994c.3066664-.6533327.6399994-.8933325 1.2799988-.8933325.7333327 0 1.2133322.4799996 1.453332 1.1999989v-.0666666c.293333-.7733326.6133327-1.1333323 1.4799986-1.1333323zm6.6266687 0c2.0133314 0 3.45333 1.4399986 3.45333 3.4666634v4.3466625h-1.4266653c.1199999-.1733332.2933331-.5866661.2933331-.9333324-.3866663.666666-1.3066654 1.1066656-2.3733311 1.1199989-1.6799984 0-3.0133305-.746666-3.0133305-2.159998 0-1.5199985 1.5333319-2.3066644 4.5866623-2.3066644.2533331 0 .5199995.0133333.7999993.0266666v-.0933332c0-1.4399986-.9333325-2.4399977-2.2799978-2.4399977-.6799994 0-1.3999987.2533331-2.2533312 1.079999l-.6799994-.8266659c.746666-.8133326 1.786665-1.2799988 2.8933306-1.2799988zm-.2533331 7.0399933c.9066658 0 1.9599981-.4133329 2.5733309-1.2666655v-1.2266655c-.2933331-.0133333-.5866661-.0133333-.8533325-.0133333-2.3066645 0-3.3733302.373333-3.3733302 1.3066654 0 .786666.746666 1.1999989 1.6533318 1.1999989zm8.8933332-3.3999968 4.3333292 4.1733294h-1.8266649l-3.4666633-3.3599968-.3599997.3199997v3.0399971h-1.1333322v-10.47999l1.1333322.0799999v5.8399944l3.5199966-3.0399971 1.6399985.1199999zm9.2799996-3.6399965c2.1599979 0 3.2799969 1.413332 3.1866636 3.8799963l-.0266666.6533327-5.4133282.0266667c0 1.4266653.9333324 2.4266643 2.2799978 2.4266643.6799994 0 1.3999987-.2533331 2.2533312-1.0799989l.6799994.8266658c-.746666.8133326-1.786665 1.2799988-2.8933306 1.2799988-2.0133314 0-3.4533301-1.4399986-3.4533301-3.45333v-.6799994c.0666667-2.453331 1.2133322-3.8799963 3.3866635-3.8799963zm-2.2399979 3.53333h4.2133293c.08-1.6266651-.6133327-2.5333309-2.0933313-2.5333309-1.4666653 0-2.0533314.9733324-2.119998 2.5333309z" fill="#fff"/><g stroke="#fff" stroke-linecap="round" stroke-width="2"><g transform="translate(44 38)"><path d="m0 1.5h68.5"/><path d="m83 1.5h20.5"/><path d="m118 1.5h6.5"/></g><g transform="translate(44 55)"><path d="m0 1.5h50.6304348"/><path d="m64 1.5h4.6428571"/></g></g></g><g transform="translate(0 175)"><path d="m54.5689339 0h261.8711711l56.559895 58.8418431h-371z" fill="#fff"/><path d="m53.6259843 2.62328767h263.8740157" stroke="#c5c5c5" stroke-linecap="square" stroke-width="3"/><path d="m53.5800775 1-51.32966291 56.8418431h370.38373841l-55.22654-56.8418431z" stroke="#000" stroke-width="2"/><path d="m2 61.2852003h371" stroke="#9a9a9a" stroke-linecap="round" stroke-width="4"/></g><g transform="translate(49 185)"><path d="m76 37 7.8118104-16h104.9546026l7.233587 16z" fill="#f1f1f1"/><path d="m84.3181818 21.5882161h104.1706982" stroke="#b2b2b2" stroke-linecap="square"/><path d="m76 37 7.8118104-16h104.9546026l7.233587 16z"/><path d="m12 .41959169h243.517505l13.872259 14.86251381h-269.389764z" fill="#f1f1f1"/><path d="m.5 15.2821055h268" stroke="#b2b2b2" stroke-linecap="round"/></g></g></svg>