<?xml version="1.0" encoding="UTF-8"?>
<svg width="377px" height="241px" viewBox="0 0 377 241" version="1.1" xmlns="http://www.w3.org/2000/svg" xmlns:xlink="http://www.w3.org/1999/xlink">
    <!-- Generator: Sketch 52.5 (67469) - http://www.bohemiancoding.com/sketch -->
    <title>laptop</title>
    <desc>Created with Sketch.</desc>
    <defs>
        <linearGradient x1="100%" y1="4.4073809%" x2="0%" y2="100%" id="linearGradient-1">
            <stop stop-color="#9EF3FF" offset="0%"></stop>
            <stop stop-color="#7FDCEE" offset="100%"></stop>
        </linearGradient>
        <linearGradient x1="33.3292736%" y1="50%" x2="107.916545%" y2="50%" id="linearGradient-2">
            <stop stop-color="#FFFFFF" stop-opacity="0.241366621" offset="0%"></stop>
            <stop stop-color="#89FFB7" stop-opacity="0.329568614" offset="100%"></stop>
        </linearGradient>
    </defs>
    <g id="Page-1" stroke="none" stroke-width="1" fill="none" fill-rule="evenodd">
        <g id="Artboard" transform="translate(-747.000000, -4580.000000)">
            <g id="contact" transform="translate(-5.000000, 4195.000000)">
                <g id="footer-image">
                    <g id="laptop" transform="translate(753.000000, 388.000000)">
                        <g id="monitor" transform="translate(55.000000, 0.000000)">
                            <rect id="Rectangle" stroke="#2A4A63" stroke-width="4" fill="#7E98AC" stroke-linecap="square" stroke-linejoin="round" x="-2" y="-1" width="265" height="176"></rect>
                            <path d="M1.5,1 L259.5,1" id="Line-3" stroke="#A6ADBC" stroke-width="3" stroke-linecap="square"></path>
                            <rect id="Rectangle-Copy-6" stroke="#2A4A63" stroke-width="4" stroke-linecap="square" stroke-linejoin="round" x="-2" y="-1" width="265" height="176"></rect>
                            <rect id="Rectangle" stroke="#697E8E" stroke-width="2" fill="url(#linearGradient-1)" stroke-linejoin="round" x="5" y="8" width="251" height="160"></rect>
                            <path d="M46.693326,83.173336 C46.693326,84.960001 45.5999937,85.9333334 43.866662,86.1466665 L43.866662,87.0133324 L42.7333298,87.0133324 L42.7333298,86.1866665 C41.5466642,86.1066666 40.4533319,85.5733337 40.0933323,84.8800011 L40.8799982,84.1466684 C41.2933311,84.7333345 41.9066639,85.0666676 42.7333298,85.1600008 L42.7333298,81.1066713 C41.1599979,80.6133385 40.1599989,79.6266727 40.1599989,78.2133408 C40.1599989,76.7466755 41.1999979,75.6533432 42.7333298,75.4400101 L42.7333298,74.8000107 L43.866662,74.8000107 L43.866662,75.4266768 C44.9199944,75.56001 45.8266602,76.0400095 46.3066597,76.7600088 L45.5599937,77.4666748 C44.986661,76.8266754 44.5199947,76.5333424 43.866662,76.4666758 L43.866662,80.2266722 C45.7733269,80.6266718 46.693326,81.3733377 46.693326,83.173336 Z M45.613327,83.2800026 C45.6399937,82.0533371 44.9999943,81.6000042 43.866662,81.3600044 L43.866662,85.1466675 C44.946661,84.9866676 45.5866604,84.4266682 45.613327,83.2800026 Z M41.2266645,78.1600075 C41.2266645,78.9600067 41.7199974,79.5466728 42.7333298,79.9200058 L42.7333298,76.5066757 C41.7733307,76.6933422 41.2266645,77.266675 41.2266645,78.1600075 Z M62.9066607,78.1866741 C64.253326,78.1866741 64.5599924,79.2000065 64.5599924,80.5466719 L64.5599924,86 L63.4799934,86 L63.4799934,80.2666721 C63.4799934,79.680006 63.1733271,79.1866732 62.5999943,79.1866732 C62.2533279,79.1866732 61.9599949,79.4666729 61.6133286,80.2666721 C61.6266619,80.4000053 61.6266619,80.5333385 61.6266619,80.6800051 L61.6266619,86 L60.5466629,86 L60.5466629,80.4000053 C60.5466629,79.8133392 60.2399965,79.3200064 59.6666637,79.3200064 C59.2533308,79.3200064 59.013331,79.6400061 58.6933313,80.2933388 L58.6933313,85.1200008 C58.6933313,85.4133339 58.6933313,85.7333336 58.7733313,86 L57.5599991,86 L57.5599991,78.4000072 L58.6933313,78.4000072 L58.6933313,79.0800066 C58.9999977,78.4266739 59.3333307,78.1866741 59.9733301,78.1866741 C60.7066628,78.1866741 61.1866623,78.6666737 61.4266621,79.386673 L61.4266621,79.3200064 C61.7199951,78.5466738 62.0399948,78.1866741 62.9066607,78.1866741 Z M69.5333294,78.1866741 C71.5466608,78.1866741 72.9866594,79.6266727 72.9866594,81.6533375 L72.9866594,86 L71.5599941,86 C71.679994,85.8266668 71.8533272,85.4133339 71.8533272,85.0666676 C71.4666609,85.7333336 70.5466618,86.1733332 69.4799961,86.1866665 C67.7999977,86.1866665 66.4666656,85.4400005 66.4666656,84.0266685 C66.4666656,82.50667 67.9999975,81.7200041 71.0533279,81.7200041 C71.306661,81.7200041 71.5733274,81.7333374 71.8533272,81.7466707 L71.8533272,81.6533375 C71.8533272,80.2133389 70.9199947,79.2133398 69.5733294,79.2133398 C68.89333,79.2133398 68.1733307,79.4666729 67.3199982,80.2933388 L66.6399988,79.4666729 C67.3866648,78.6533403 68.4266638,78.1866741 69.5333294,78.1866741 Z M69.2799963,85.2266674 C70.1866621,85.2266674 71.2399944,84.8133345 71.8533272,83.9600019 L71.8533272,82.7333364 C71.5599941,82.7200031 71.2666611,82.7200031 70.9999947,82.7200031 C68.6933302,82.7200031 67.6266645,83.0933361 67.6266645,84.0266685 C67.6266645,84.8133345 68.3733305,85.2266674 69.2799963,85.2266674 Z M78.1733295,81.8266706 L82.5066587,86 L80.6799938,86 L77.2133305,82.6400032 L76.8533308,82.9600029 L76.8533308,86 L75.7199986,86 L75.7199986,75.52001 L76.8533308,75.6000099 L76.8533308,81.4400043 L80.3733274,78.4000072 L82.0133259,78.5200071 L78.1733295,81.8266706 Z M87.4533291,78.1866741 C89.613327,78.1866741 90.733326,79.6000061 90.6399927,82.0666704 L90.6133261,82.7200031 L85.1999979,82.7466698 C85.1999979,84.1733351 86.1333303,85.1733341 87.4799957,85.1733341 C88.1599951,85.1733341 88.8799944,84.920001 89.7333269,84.0933352 L90.4133263,84.920001 C89.6666603,85.7333336 88.6266613,86.1999998 87.5199957,86.1999998 C85.5066643,86.1999998 84.0666656,84.7600012 84.0666656,82.7466698 L84.0666656,82.0666704 C84.1333323,79.6133394 85.2799978,78.1866741 87.4533291,78.1866741 Z M85.2133312,81.7200041 L89.4266605,81.7200041 C89.5066605,80.093339 88.8133278,79.1866732 87.3333292,79.1866732 C85.8666639,79.1866732 85.2799978,80.1600056 85.2133312,81.7200041 Z" id="$-make" fill="#153045"></path>
                            <g id="Group-7" transform="translate(44.000000, 38.000000)" stroke="#2A4A63" stroke-linecap="round" stroke-width="5">
                                <path d="M0,1.5 L68.5,1.5" id="Line-7"></path>
                                <path d="M83,1.5 L103.5,1.5" id="Line-7-Copy"></path>
                                <path d="M118,1.5 L124.5,1.5" id="Line-7-Copy-2"></path>
                            </g>
                            <g id="Group-7-Copy" transform="translate(44.000000, 55.000000)" stroke="#2A4A63" stroke-linecap="round" stroke-width="5">
                                <path d="M0,1.5 L50.6304348,1.5" id="Line-7"></path>
                                <path d="M64,1.5 L68.6428571,1.5" id="Line-7-Copy-2"></path>
                            </g>
                        </g>
                        <g id="keyboard" transform="translate(0.000000, 174.000000)">
                            <g id="boundary">
                                <polygon id="Rectangle" fill="#697E8E" points="54.5689339 0 316.440105 0 373 58.8418431 2 58.8418431"></polygon>
                                <path d="M53.6259843,3.62328767 L318.389764,3.62328767" id="Line-4" stroke="#597281" stroke-width="3" stroke-linecap="square"></path>
                                <path d="M54.02444,2 L4.50082918,56.8418431 L370.268307,56.8418431 L316.984931,2 L54.02444,2 Z" id="Rectangle-Copy" stroke="#2A4A63" stroke-width="4"></path>
                                <rect id="Rectangle" stroke="#697E8E" stroke-width="1.5" fill="#697E8E" stroke-linecap="round" stroke-linejoin="round" x="0.202755906" y="59.9548568" width="374.594488" height="2.79514321"></rect>
                            </g>
                            <g id="keys" transform="translate(49.000000, 10.000000)">
                                <polygon id="Path-2" fill="#90A6B7" points="76 37 83.8118104 21 188.766413 21 196 37"></polygon>
                                <path d="M84.3181818,21.5882161 L188.48888,21.5882161" id="Line-5" stroke="#555C5F" stroke-linecap="square"></path>
                                <polygon id="Path-2-Copy" stroke="#60707D" points="76 37 83.8118104 21 188.766413 21 196 37"></polygon>
                                <polygon id="Path-7" fill="#90A6B7" points="12 0.419591689 255.517505 0.419591689 269.389764 15.2821055 0 15.2821055"></polygon>
                                <path d="M0.5,15.2821055 L268.5,15.2821055" id="Line-10" stroke="#4E5D67" stroke-linecap="round"></path>
                            </g>
                        </g>
                        <polygon id="Path-6" fill="url(#linearGradient-2)" style="mix-blend-mode: multiply;" transform="translate(186.632970, 203.067213) scale(-1, 1) rotate(-90.000000) translate(-186.632970, -203.067213) " points="162.418077 25.3243315 162.418077 380.810094 210.847863 336.408914 210.847863 70.7001825"></polygon>
                    </g>
                </g>
            </g>
        </g>
    </g>
</svg>