<svg height="125" viewBox="0 0 271 125" width="271" xmlns="http://www.w3.org/2000/svg"><g fill="none" fill-rule="evenodd"><g transform="translate(20.862069 49.259542)"><path d="m13.6306772 27.5819899-.7183549-18.10706332 4.3153326-6.48434505 8.7584669-1.86829406 7.5311196 1.86829406 4.3371834 6.48434505-.521287 10.48257822v6.9395623z" fill="#f2f2f2"/><path d="m21.8378395 2.35326922c5.3035093 6.44494388 7.5434052 14.50553118 6.7196876 24.18176178s2.1033013 9.6762306 8.7810565 0l.7281988-14.7264203-3.9149658-8.11729534-8.4556402-3.13305364z" fill="#a9a9a9"/><path d="m28.4513253 28.9514141h8.2436049l3.0042544 9.7947488 4.0594361 6.1247836 6.0517241 8.0645682-.7935878 8.1062867-3.9089969 5.0537556-7.9043902 5.4287165-9.4760934 2.049264-11.0633429-.5385481-8.82646283-4.3404954-5.33390239-6.0719402-2.18718287-4.7455442v-4.9414949l3.0572647-4.212053 5.16416763-4.9098899 3.36462226-8.4132338 1.5350038-6.4489239z" fill="#fff"/><path d="m27.4273098 29.4378773c4.6776456 14.6078854 8.1185551 23.1565569 10.3227284 25.6460145 3.30626 3.7341863-8.2489569 16.1352045-16.9472267 18.8668823h8.7630418c.1515001 0 2.8795617-.9774775 8.1841849-2.9324324l3.7007787-2.3994467 5.1690099-4.2990297 1.4965203-3.4027138 2.159515-2.1089341v-2.5268778l-1.738746-5.8211234-7.0862992-7.6274087-3.2466235-9.2256071-1.6351626-5.0211393z" fill="#e1e1e1"/><g stroke="#000" stroke-linecap="round" stroke-width="3"><path d="m8.85358567 56.6360734c.73891543 2.5329459 1.98134333 4.343698 3.72728383 5.4322563"/><path d="m15.1612967 64.2007779c.1729947.153944.4511996.307888.8346149.4618321"/></g></g><path d="m21.4778971 48.0524573 1.569821-16.8567903h-6.8895674c-.633995 5.9249438-2.8008293 10.8156104-6.22166627 15.2664683-.86752789 1.1287423-5.25936751 6.0261662-5.66864802 6.8886629-1.48054223 3.1200185-1.24956447 5.300976-.08451049 7.1216174.01746605.0272944.388835.6310649.55792956.8952013.31460803.4914376.64943095.9815359 1.02933773 1.4956463 1.04393446 1.4127087 2.26221709 2.7810496 3.69232465 4.0627852 4.54791154 4.0760715 10.31634974 6.5052493 17.53708214 6.5052493s12.9891706-2.4291778 17.5370821-6.5052493c1.4301076-1.2817356 2.6483902-2.6500765 3.6923247-4.0627852.3799068-.5141104.7147297-1.0042087 1.0293377-1.4956463.1690946-.2641364.5404635-.8679069.5579296-.8952013 1.165054-1.8206414 1.3960317-4.0015989-.0845105-7.1216174-.4092805-.8624967-4.8011201-5.7599206-5.668648-6.8886629-3.420837-4.4508579-5.5876713-9.3415245-6.2216663-15.2664683h-6.9282306l.5540899 13.992002c.3720324-.3588778 1.0242137-.3717715 1.3893489.0964281l2.2743985 2.9163776.7103091-1.7096499c.1959495-.4716327.7401826-.6963756 1.2155787-.5019773.4753962.1943983.7019324.7343231.5059829 1.2059559l-1.3232355 3.1849083c-.2727671.6565258-1.159146.7748613-1.5971487.2132265l-1.9925498-2.5549734-1.0428502 5.4618463c-.1784918.9348369-1.4929662 1.0236658-1.7975889.1214767l-1.7241068-5.106221-1.1952218 2.9338711c-.3269491.8025512-1.4871283.7581108-1.7507289-.0670611l-.8412729-2.6335091-1.4687252 4.0993939c-.2982642.8324922-1.4912941.8143379-1.763682-.0268378l-1.1092194-3.4254394-.962301 2.0909699c-.2135621.4640459-.7658737.6684737-1.2336224.4566023-.4677488-.2118715-.6738079-.7598107-.4602458-1.2238567l1.9605327-4.260013c.353193-.767448 1.4732516-.7021087 1.7333504.1011161zm2.1272961-2.762862c.4244512-.5686656 1.3924237-.4678279 1.6315302.2806678l.896768 2.8072304 1.1709498-2.8742915c.3241216-.7956106 1.4712773-.7609673 1.7460204.0527286l.643836 1.9068245-.6441799-16.2669779.0028267-.0001102h-4.1352271zm14.0522728-18.7122489c.0344212-1.5358352.1589597-3.1381568.3773353-4.8148952.2169264-1.6656113.3407125-3.2137666.3710201-4.6465352h-22.8116428c.0303076 1.4327686.1540937 2.9809239.3710201 4.6465352.2183756 1.6767384.3429141 3.27906.3773353 4.8148952zm.4605075-14.0797511c-1.0236348-6.18998258-4.7125692-9.17383988-11.1179735-9.26463833-6.4054043.09079845-10.0943387 3.07465575-11.1179735 9.26463833zm2.7953234 0h1.4487721v4.6183207h-1.175439c-.023855 1.5621121-.1510085 3.2299124-.3817521 5.001616-1.2692382 9.745505.8252843 16.6085324 5.4797287 22.6644395.6398857.8325565 5.3627382 6.0990992 5.9746289 7.3885663 1.9081107 4.0210543 1.571533 7.199116-.0845105 9.7870316.0003001-.0004689-.3712506.6035971-.5582101.8956396-.3463669.5410469-.7156746 1.0816225-1.1344953 1.6483934-1.1507629 1.5572746-2.4934781 3.0653747-4.0725565 4.4806257-5.0385463 4.5158034-11.4602038 7.220062-19.4094631 7.220062s-14.3709168-2.7042586-19.40946309-7.220062c-1.57907841-1.415251-2.92179365-2.9233511-4.07255653-4.4806257-.4188207-.5667709-.7881284-1.1073465-1.13449532-1.6483934-.18695947-.2920425-.55851016-.8961085-.55821008-.8956396-1.65604351-2.5879156-1.99262118-5.7659773-.08451049-9.7870316.61189075-1.2894671 5.33474324-6.5560098 5.9746289-7.3885663 4.65444441-6.0559071 6.74896691-12.9189345 5.47972871-22.6644395-.2307436-1.7717036-.3578971-3.4395039-.3817521-5.001616h-1.175439v-4.6183207h1.4487721c1.140161-7.79768311 5.791048-11.92797803 13.8945964-12.03563902h.037401c8.1035484.10766099 12.7544354 4.23795591 13.8945964 12.03563902zm-21.9038317 9.3411049c-.2570981 0-.4655172-.2238577-.4655172-.5 0-.2761424.2084191-.5.4655172-.5h2.5239523c.2570981 0 .4655172.2238576.4655172.5 0 .2761423-.2084191.5-.4655172.5zm4.2901892.1174475c-.2570981 0-.4655172-.2238576-.4655172-.5 0-.2761423.2084191-.5.4655172-.5h8.355518c.2570981 0 .4655173.2238577.4655173.5 0 .2761424-.2084192.5-.4655173.5zm10.1948604-.0627963c-.2570981 0-.4655172-.2238576-.4655172-.5s.2084191-.5.4655172-.5h2.2757946c.257098 0 .4655172.2238576.4655172.5s-.2084192.5-.4655172.5zm-13.9427907 2.6558392c-.257098 0-.4655172-.2238576-.4655172-.5s.2084192-.5.4655172-.5h2.0659134c.2570981 0 .4655173.2238576.4655173.5s-.2084192.5-.4655173.5zm4.0281341.0407257c-.2570981 0-.4655173-.2238576-.4655173-.5s.2084192-.5.4655173-.5h4.0311729c.257098 0 .4655172.2238576.4655172.5s-.2084192.5-.4655172.5zm5.9576397.1629027c-.2570981 0-.4655172-.2238577-.4655172-.5 0-.2761424.2084191-.5.4655172-.5h5.8418124c.2570981 0 .4655173.2238576.4655173.5 0 .2761423-.2084192.5-.4655173.5z" fill="#000" fill-rule="nonzero" transform="translate(19 48.335878)"/><g transform="translate(38.551724 4)"><path d="m6.62934509.306305v44.8931343" stroke="#444" stroke-width="5"/><path d="m3.63122558.32721649 8.93773992 12.64980541-11.71897418 8.6843251 13.40472818 8.4251325-11.56758261 15.8817325" stroke="#000" stroke-linecap="round" stroke-linejoin="round" stroke-width="4"/></g><g transform="translate(110.862069 49.259542)"><path d="m13.6306772 27.5819899-.7183549-18.10706332 4.3153326-6.48434505 8.7584669-1.86829406 7.5311196 1.86829406 4.3371834 6.48434505-.521287 10.48257822v6.9395623z" fill="#f2f2f2"/><path d="m21.8378395 2.35326922c5.3035093 6.44494388 7.5434052 14.50553118 6.7196876 24.18176178s2.1033013 9.6762306 8.7810565 0l.7281988-14.7264203-3.9149658-8.11729534-8.4556402-3.13305364z" fill="#a9a9a9"/><path d="m28.4513253 28.9514141h8.2436049l3.0042544 9.7947488 4.0594361 6.1247836 6.0517241 8.0645682-.7935878 8.1062867-3.9089969 5.0537556-7.9043902 5.4287165-9.4760934 2.049264-11.0633429-.5385481-8.82646283-4.3404954-5.33390239-6.0719402-2.18718287-4.7455442v-4.9414949l3.0572647-4.212053 5.16416763-4.9098899 3.36462226-8.4132338 1.5350038-6.4489239z" fill="#fff"/><path d="m27.4273098 29.4378773c4.6776456 14.6078854 8.1185551 23.1565569 10.3227284 25.6460145 3.30626 3.7341863-8.2489569 16.1352045-16.9472267 18.8668823h8.7630418c.1515001 0 2.8795617-.9774775 8.1841849-2.9324324l3.7007787-2.3994467 5.1690099-4.2990297 1.4965203-3.4027138 2.159515-2.1089341v-2.5268778l-1.738746-5.8211234-7.0862992-7.6274087-3.2466235-9.2256071-1.6351626-5.0211393z" fill="#e1e1e1"/><g stroke="#000" stroke-linecap="round" stroke-width="3"><path d="m8.85358567 56.6360734c.73891543 2.5329459 1.98134333 4.343698 3.72728383 5.4322563"/><path d="m15.1612967 64.2007779c.1729947.153944.4511996.307888.8346149.4618321"/></g></g><path d="m21.4778971 48.0524573 1.569821-16.8567903h-6.8895674c-.633995 5.9249438-2.8008293 10.8156104-6.22166627 15.2664683-.86752789 1.1287423-5.25936751 6.0261662-5.66864802 6.8886629-1.48054223 3.1200185-1.24956447 5.300976-.08451049 7.1216174.01746605.0272944.388835.6310649.55792956.8952013.31460803.4914376.64943095.9815359 1.02933773 1.4956463 1.04393446 1.4127087 2.26221709 2.7810496 3.69232465 4.0627852 4.54791154 4.0760715 10.31634974 6.5052493 17.53708214 6.5052493s12.9891706-2.4291778 17.5370821-6.5052493c1.4301076-1.2817356 2.6483902-2.6500765 3.6923247-4.0627852.3799068-.5141104.7147297-1.0042087 1.0293377-1.4956463.1690946-.2641364.5404635-.8679069.5579296-.8952013 1.165054-1.8206414 1.3960317-4.0015989-.0845105-7.1216174-.4092805-.8624967-4.8011201-5.7599206-5.668648-6.8886629-3.420837-4.4508579-5.5876713-9.3415245-6.2216663-15.2664683h-6.9282306l.5540899 13.992002c.3720324-.3588778 1.0242137-.3717715 1.3893489.0964281l2.2743985 2.9163776.7103091-1.7096499c.1959495-.4716327.7401826-.6963756 1.2155787-.5019773.4753962.1943983.7019324.7343231.5059829 1.2059559l-1.3232355 3.1849083c-.2727671.6565258-1.159146.7748613-1.5971487.2132265l-1.9925498-2.5549734-1.0428502 5.4618463c-.1784918.9348369-1.4929662 1.0236658-1.7975889.1214767l-1.7241068-5.106221-1.1952218 2.9338711c-.3269491.8025512-1.4871283.7581108-1.7507289-.0670611l-.8412729-2.6335091-1.4687252 4.0993939c-.2982642.8324922-1.4912941.8143379-1.763682-.0268378l-1.1092194-3.4254394-.962301 2.0909699c-.2135621.4640459-.7658737.6684737-1.2336224.4566023-.4677488-.2118715-.6738079-.7598107-.4602458-1.2238567l1.9605327-4.260013c.353193-.767448 1.4732516-.7021087 1.7333504.1011161zm2.1272961-2.762862c.4244512-.5686656 1.3924237-.4678279 1.6315302.2806678l.896768 2.8072304 1.1709498-2.8742915c.3241216-.7956106 1.4712773-.7609673 1.7460204.0527286l.643836 1.9068245-.6441799-16.2669779.0028267-.0001102h-4.1352271zm14.0522728-18.7122489c.0344212-1.5358352.1589597-3.1381568.3773353-4.8148952.2169264-1.6656113.3407125-3.2137666.3710201-4.6465352h-22.8116428c.0303076 1.4327686.1540937 2.9809239.3710201 4.6465352.2183756 1.6767384.3429141 3.27906.3773353 4.8148952zm.4605075-14.0797511c-1.0236348-6.18998258-4.7125692-9.17383988-11.1179735-9.26463833-6.4054043.09079845-10.0943387 3.07465575-11.1179735 9.26463833zm2.7953234 0h1.4487721v4.6183207h-1.175439c-.023855 1.5621121-.1510085 3.2299124-.3817521 5.001616-1.2692382 9.745505.8252843 16.6085324 5.4797287 22.6644395.6398857.8325565 5.3627382 6.0990992 5.9746289 7.3885663 1.9081107 4.0210543 1.571533 7.199116-.0845105 9.7870316.0003001-.0004689-.3712506.6035971-.5582101.8956396-.3463669.5410469-.7156746 1.0816225-1.1344953 1.6483934-1.1507629 1.5572746-2.4934781 3.0653747-4.0725565 4.4806257-5.0385463 4.5158034-11.4602038 7.220062-19.4094631 7.220062s-14.3709168-2.7042586-19.40946309-7.220062c-1.57907841-1.415251-2.92179365-2.9233511-4.07255653-4.4806257-.4188207-.5667709-.7881284-1.1073465-1.13449532-1.6483934-.18695947-.2920425-.55851016-.8961085-.55821008-.8956396-1.65604351-2.5879156-1.99262118-5.7659773-.08451049-9.7870316.61189075-1.2894671 5.33474324-6.5560098 5.9746289-7.3885663 4.65444441-6.0559071 6.74896691-12.9189345 5.47972871-22.6644395-.2307436-1.7717036-.3578971-3.4395039-.3817521-5.001616h-1.175439v-4.6183207h1.4487721c1.140161-7.79768311 5.791048-11.92797803 13.8945964-12.03563902h.037401c8.1035484.10766099 12.7544354 4.23795591 13.8945964 12.03563902zm-21.9038317 9.3411049c-.2570981 0-.4655172-.2238577-.4655172-.5 0-.2761424.2084191-.5.4655172-.5h2.5239523c.2570981 0 .4655172.2238576.4655172.5 0 .2761423-.2084191.5-.4655172.5zm4.2901892.1174475c-.2570981 0-.4655172-.2238576-.4655172-.5 0-.2761423.2084191-.5.4655172-.5h8.355518c.2570981 0 .4655173.2238577.4655173.5 0 .2761424-.2084192.5-.4655173.5zm10.1948604-.0627963c-.2570981 0-.4655172-.2238576-.4655172-.5s.2084191-.5.4655172-.5h2.2757946c.257098 0 .4655172.2238576.4655172.5s-.2084192.5-.4655172.5zm-13.9427907 2.6558392c-.257098 0-.4655172-.2238576-.4655172-.5s.2084192-.5.4655172-.5h2.0659134c.2570981 0 .4655173.2238576.4655173.5s-.2084192.5-.4655173.5zm4.0281341.0407257c-.2570981 0-.4655173-.2238576-.4655173-.5s.2084192-.5.4655173-.5h4.0311729c.257098 0 .4655172.2238576.4655172.5s-.2084192.5-.4655172.5zm5.9576397.1629027c-.2570981 0-.4655172-.2238577-.4655172-.5 0-.2761424.2084191-.5.4655172-.5h5.8418124c.2570981 0 .4655173.2238576.4655173.5 0 .2761423-.2084192.5-.4655173.5z" fill="#000" fill-rule="nonzero" transform="translate(109 48.335878)"/><g transform="translate(128.551724 4)"><path d="m6.62934509.306305v44.8931343" stroke="#444" stroke-width="5"/><path d="m3.63122558.32721649 8.93773992 12.64980541-11.71897418 8.6843251 13.40472818 8.4251325-11.56758261 15.8817325" stroke="#000" stroke-linecap="round" stroke-linejoin="round" stroke-width="4"/></g><g transform="translate(200.862069 49.259542)"><path d="m13.6306772 27.5819899-.7183549-18.10706332 4.3153326-6.48434505 8.7584669-1.86829406 7.5311196 1.86829406 4.3371834 6.48434505-.521287 10.48257822v6.9395623z" fill="#f2f2f2"/><path d="m21.8378395 2.35326922c5.3035093 6.44494388 7.5434052 14.50553118 6.7196876 24.18176178s2.1033013 9.6762306 8.7810565 0l.7281988-14.7264203-3.9149658-8.11729534-8.4556402-3.13305364z" fill="#a9a9a9"/><path d="m28.4513253 28.9514141h8.2436049l3.0042544 9.7947488 4.0594361 6.1247836 6.0517241 8.0645682-.7935878 8.1062867-3.9089969 5.0537556-7.9043902 5.4287165-9.4760934 2.049264-11.0633429-.5385481-8.82646283-4.3404954-5.33390239-6.0719402-2.18718287-4.7455442v-4.9414949l3.0572647-4.212053 5.16416763-4.9098899 3.36462226-8.4132338 1.5350038-6.4489239z" fill="#fff"/><path d="m27.4273098 29.4378773c4.6776456 14.6078854 8.1185551 23.1565569 10.3227284 25.6460145 3.30626 3.7341863-8.2489569 16.1352045-16.9472267 18.8668823h8.7630418c.1515001 0 2.8795617-.9774775 8.1841849-2.9324324l3.7007787-2.3994467 5.1690099-4.2990297 1.4965203-3.4027138 2.159515-2.1089341v-2.5268778l-1.738746-5.8211234-7.0862992-7.6274087-3.2466235-9.2256071-1.6351626-5.0211393z" fill="#e1e1e1"/><g stroke="#000" stroke-linecap="round" stroke-width="3"><path d="m8.85358567 56.6360734c.73891543 2.5329459 1.98134333 4.343698 3.72728383 5.4322563"/><path d="m15.1612967 64.2007779c.1729947.153944.4511996.307888.8346149.4618321"/></g></g><path d="m21.4778971 48.0524573 1.569821-16.8567903h-6.8895674c-.633995 5.9249438-2.8008293 10.8156104-6.22166627 15.2664683-.86752789 1.1287423-5.25936751 6.0261662-5.66864802 6.8886629-1.48054223 3.1200185-1.24956447 5.300976-.08451049 7.1216174.01746605.0272944.388835.6310649.55792956.8952013.31460803.4914376.64943095.9815359 1.02933773 1.4956463 1.04393446 1.4127087 2.26221709 2.7810496 3.69232465 4.0627852 4.54791154 4.0760715 10.31634974 6.5052493 17.53708214 6.5052493s12.9891706-2.4291778 17.5370821-6.5052493c1.4301076-1.2817356 2.6483902-2.6500765 3.6923247-4.0627852.3799068-.5141104.7147297-1.0042087 1.0293377-1.4956463.1690946-.2641364.5404635-.8679069.5579296-.8952013 1.165054-1.8206414 1.3960317-4.0015989-.0845105-7.1216174-.4092805-.8624967-4.8011201-5.7599206-5.668648-6.8886629-3.420837-4.4508579-5.5876713-9.3415245-6.2216663-15.2664683h-6.9282306l.5540899 13.992002c.3720324-.3588778 1.0242137-.3717715 1.3893489.0964281l2.2743985 2.9163776.7103091-1.7096499c.1959495-.4716327.7401826-.6963756 1.2155787-.5019773.4753962.1943983.7019324.7343231.5059829 1.2059559l-1.3232355 3.1849083c-.2727671.6565258-1.159146.7748613-1.5971487.2132265l-1.9925498-2.5549734-1.0428502 5.4618463c-.1784918.9348369-1.4929662 1.0236658-1.7975889.1214767l-1.7241068-5.106221-1.1952218 2.9338711c-.3269491.8025512-1.4871283.7581108-1.7507289-.0670611l-.8412729-2.6335091-1.4687252 4.0993939c-.2982642.8324922-1.4912941.8143379-1.763682-.0268378l-1.1092194-3.4254394-.962301 2.0909699c-.2135621.4640459-.7658737.6684737-1.2336224.4566023-.4677488-.2118715-.6738079-.7598107-.4602458-1.2238567l1.9605327-4.260013c.353193-.767448 1.4732516-.7021087 1.7333504.1011161zm2.1272961-2.762862c.4244512-.5686656 1.3924237-.4678279 1.6315302.2806678l.896768 2.8072304 1.1709498-2.8742915c.3241216-.7956106 1.4712773-.7609673 1.7460204.0527286l.643836 1.9068245-.6441799-16.2669779.0028267-.0001102h-4.1352271zm14.0522728-18.7122489c.0344212-1.5358352.1589597-3.1381568.3773353-4.8148952.2169264-1.6656113.3407125-3.2137666.3710201-4.6465352h-22.8116428c.0303076 1.4327686.1540937 2.9809239.3710201 4.6465352.2183756 1.6767384.3429141 3.27906.3773353 4.8148952zm.4605075-14.0797511c-1.0236348-6.18998258-4.7125692-9.17383988-11.1179735-9.26463833-6.4054043.09079845-10.0943387 3.07465575-11.1179735 9.26463833zm2.7953234 0h1.4487721v4.6183207h-1.175439c-.023855 1.5621121-.1510085 3.2299124-.3817521 5.001616-1.2692382 9.745505.8252843 16.6085324 5.4797287 22.6644395.6398857.8325565 5.3627382 6.0990992 5.9746289 7.3885663 1.9081107 4.0210543 1.571533 7.199116-.0845105 9.7870316.0003001-.0004689-.3712506.6035971-.5582101.8956396-.3463669.5410469-.7156746 1.0816225-1.1344953 1.6483934-1.1507629 1.5572746-2.4934781 3.0653747-4.0725565 4.4806257-5.0385463 4.5158034-11.4602038 7.220062-19.4094631 7.220062s-14.3709168-2.7042586-19.40946309-7.220062c-1.57907841-1.415251-2.92179365-2.9233511-4.07255653-4.4806257-.4188207-.5667709-.7881284-1.1073465-1.13449532-1.6483934-.18695947-.2920425-.55851016-.8961085-.55821008-.8956396-1.65604351-2.5879156-1.99262118-5.7659773-.08451049-9.7870316.61189075-1.2894671 5.33474324-6.5560098 5.9746289-7.3885663 4.65444441-6.0559071 6.74896691-12.9189345 5.47972871-22.6644395-.2307436-1.7717036-.3578971-3.4395039-.3817521-5.001616h-1.175439v-4.6183207h1.4487721c1.140161-7.79768311 5.791048-11.92797803 13.8945964-12.03563902h.037401c8.1035484.10766099 12.7544354 4.23795591 13.8945964 12.03563902zm-21.9038317 9.3411049c-.2570981 0-.4655172-.2238577-.4655172-.5 0-.2761424.2084191-.5.4655172-.5h2.5239523c.2570981 0 .4655172.2238576.4655172.5 0 .2761423-.2084191.5-.4655172.5zm4.2901892.1174475c-.2570981 0-.4655172-.2238576-.4655172-.5 0-.2761423.2084191-.5.4655172-.5h8.355518c.2570981 0 .4655173.2238577.4655173.5 0 .2761424-.2084192.5-.4655173.5zm10.1948604-.0627963c-.2570981 0-.4655172-.2238576-.4655172-.5s.2084191-.5.4655172-.5h2.2757946c.257098 0 .4655172.2238576.4655172.5s-.2084192.5-.4655172.5zm-13.9427907 2.6558392c-.257098 0-.4655172-.2238576-.4655172-.5s.2084192-.5.4655172-.5h2.0659134c.2570981 0 .4655173.2238576.4655173.5s-.2084192.5-.4655173.5zm4.0281341.0407257c-.2570981 0-.4655173-.2238576-.4655173-.5s.2084192-.5.4655173-.5h4.0311729c.257098 0 .4655172.2238576.4655172.5s-.2084192.5-.4655172.5zm5.9576397.1629027c-.2570981 0-.4655172-.2238577-.4655172-.5 0-.2761424.2084191-.5.4655172-.5h5.8418124c.2570981 0 .4655173.2238576.4655173.5 0 .2761423-.2084192.5-.4655173.5z" fill="#000" fill-rule="nonzero" transform="translate(199 48.335878)"/><g transform="translate(218.551724 4)"><path d="m6.62934509.306305v44.8931343" stroke="#444" stroke-width="5"/><path d="m3.63122558.32721649 8.93773992 12.64980541-11.71897418 8.6843251 13.40472818 8.4251325-11.56758261 15.8817325" stroke="#000" stroke-linecap="round" stroke-linejoin="round" stroke-width="4"/></g><path d="m.39991388 1.29448417h266.03494912" stroke="#000" stroke-linecap="round" stroke-width="4" transform="translate(2 1)"/></g></svg>