<svg height="136" viewBox="0 0 294 136" width="294" xmlns="http://www.w3.org/2000/svg"><g fill="none" fill-rule="evenodd"><g transform="translate(29 54)"><path d="m14.640357 29.8614932-.7715664-19.6035148 4.6349869-7.02024138 9.4072422-2.02269852 8.0889803 2.02269852 4.6584563 7.02024138-.5599009 11.348907v7.5130798z" fill="#d1d1d1"/><path d="m23.4554572 2.54775428c5.6963619 6.97758387 8.102176 15.70433532 7.2174423 26.18025452-.8847337 10.4759191 2.2591013 10.4759191 9.4315051 0l.7821394-15.9434799-4.2049632-8.78814615-9.0819839-3.3919837z" fill="#aaa"/><path d="m30.5588309 31.344093h8.8542423l3.2267918 10.6042321 4.360135 6.6309641 6.5 8.7310614-.8523721 8.7762278-4.1985522 5.4714213-8.4899006 5.8773708-10.1780263 2.2186247-11.8828497-.5830562-9.48027494-4.6992141-5.72900627-6.5737534-2.34919642-5.137738v-5.3498829l3.28372876-4.5601565 5.54669856-5.3156659 3.61385351-9.1085424 1.6487078-6.9818928z" fill="#fceaa5"/><path d="m29.4589624 31.8707597c5.0241378 15.8151487 8.7199295 25.070322 11.0873749 27.7655198 3.5511682 4.0427968-8.8599907 17.4686925-18.2025768 20.4261288h9.412156c.1627223 0 3.0928626-1.0582607 8.7904208-3.1747821l3.9749104-2.5977481 5.5518996-4.6543215 1.6073737-3.6839297 2.319479-2.2832263v-2.7357106l-1.867542-6.302208-7.6112103-8.2577731-3.4871141-9.9880539-1.7562857-5.4361095z" fill="#f3c745"/><g stroke="#fff" stroke-linecap="round" stroke-width="3"><path d="m9.50940684 61.3167406c.79364986 2.7422803 2.12810956 4.7026814 4.00337886 5.8812031"/><path d="m16.2843557 69.5066273c.1858091.1666667.4846218.3333333.8964382.5"/></g></g><path d="m23.0688524 52.0237347 1.6861041-18.2499134h-7.3999058c-.6809576 6.4146086-3.0082981 11.7094625-6.6825304 16.5281599-.9317892 1.2220267-5.64895027 6.5241964-6.08854786 7.4579738-1.59021203 3.3778714-1.3421248 5.7390733-.09077053 7.7101809.01875984.0295501.4176376.6832191.59925768.9691849.33791232.5320522.69753694 1.0626545 1.10558497 1.6192534 1.12126293 1.5294615 2.42978872 3.0108884 3.96583014 4.3985526 4.8847939 4.4129369 11.0805238 7.0428732 18.8361253 7.0428732s13.9513314-2.6299363 18.8361253-7.0428732c1.5360414-1.3876642 2.8445672-2.8690911 3.9658301-4.3985526.4080481-.5565989.7676727-1.0872012 1.105585-1.6192534.1816201-.2859658.5804979-.9396348.5992577-.9691849 1.2513543-1.9711076 1.4994415-4.3323095-.0907705-7.7101809-.4395976-.9337774-5.1567587-6.2359471-6.0885479-7.4579738-3.6742323-4.8186974-6.0015728-10.1135513-6.6825304-16.5281599h-7.4414329l.5951336 15.1483658c.3995904-.3885371 1.1000813-.4024964 1.4922636.1043973l2.4428724 3.1574006.7629246-1.8509432c.2104643-.5106107.795011-.7539274 1.3056217-.5434631.5106106.2104643.7539273.795011.5434631 1.3056216l-1.421253 3.448124c-.2929721.710784-1.2450087.8388994-1.715456.2308485l-2.1401461-2.7661282-1.1200984 5.9132385c-.1917134 1.0120961-1.6035563 1.1082663-1.9307436.131516l-1.8518184-5.5282227-1.2837567 3.1763399c-.3511676.8688776-1.597286.8207646-1.8804126-.0726034l-.9035894-2.8511545-1.5775197 4.4381868c-.3203577.9012932-1.6017602.8816386-1.8943251-.0290558l-1.1913838-3.7085336-1.0335825 2.2637774c-.2293815.5023968-.822605.7237195-1.3250019.494338-.5023968-.2293815-.7237195-.822605-.494338-1.3250019l2.1057573-4.6120802c.3793554-.8308734 1.5823814-.7601342 1.8617467.1094728zm2.2848736-2.9911976c.4558921-.6156628 1.4955662-.5064914 1.7523843.3038635l.9631953 3.0392329 1.2576868-3.1118363c.3481306-.8613635 1.5802608-.8238572 1.8753552.0570863l.6915276 2.0644134-.691897-17.6113563.0030361-.0001193h-4.4415401zm15.0931819-20.2587158c.0369709-1.6627638.1707345-3.3975086.4052861-5.2128204.232995-1.8032652.3659505-3.4793671.3985031-5.0305464h-24.5013942c.0325526 1.5511793.1655081 3.2272812.3985031 5.0305464.2345516 1.8153118.3683152 3.5500566.4052861 5.2128204zm.4946192-15.2433668c-1.0994596-6.70155147-5.0616484-9.93200855-11.9415271-10.030311-6.8798787.09830245-10.8420675 3.32875953-11.9415271 10.030311zm3.0023844 0h1.5560885v5h-1.2625085c-.025622 1.6912122-.1621943 3.4968473-.4100301 5.4149727-1.3632557 10.5509186.8864165 17.9811384 5.8856346 24.5375337.6872846.9013628 5.759978 6.6031569 6.417194 7.9991915 2.0494522 4.353373 1.6879429 7.7940844-.0907705 10.5958773.0003223-.0005077-.3987507.6534811-.599559.9696593-.3720237.5857616-.7686876 1.1710129-1.218532 1.7846243-1.2360046 1.685975-2.6781802 3.3187115-4.3742274 4.8509254-5.411772 4.8890103-12.3091078 7.8167613-20.8472011 7.8167613s-15.4354291-2.927751-20.8472011-7.8167613c-1.69604718-1.5322139-3.13822281-3.1649504-4.37422738-4.8509254-.44984446-.6136114-.84650828-1.1988627-1.21853201-1.7846243-.20080832-.3161782-.59988129-.970167-.59955897-.9696593-1.77871341-2.8017929-2.14022276-6.2425043-.09077053-10.5958773.65721599-1.3960346 5.7299094-7.0978287 6.41719401-7.9991915 4.99921808-6.5563953 7.24889028-13.9866151 5.88563458-24.5375337-.2478358-1.9181254-.3844081-3.7237605-.4100301-5.4149727h-1.2625085v-5h1.5560885c1.2246174-8.44211981 6.2200145-12.91376142 14.9238258-13.03032001h.0401714c8.7038113.11655859 13.6992084 4.5882002 14.9238258 13.03032001zm-23.5263378 10.0304523c-.2761423 0-.5-.2238576-.5-.5s.2238577-.5.5-.5h2.7109118c.2761423 0 .5.2238576.5.5s-.2238577.5-.5.5zm4.6079811.127154c-.2761424 0-.5-.2238577-.5-.5 0-.2761424.2238576-.5.5-.5h8.9744452c.2761424 0 .5.2238576.5.5 0 .2761423-.2238576.5-.5.5zm10.9500352-.0679862c-.2761424 0-.5-.2238576-.5-.5 0-.2761423.2238576-.5.5-.5h2.4443719c.2761424 0 .5.2238577.5.5 0 .2761424-.2238576.5-.5.5zm-14.97559 2.8753301c-.2761424 0-.5-.2238576-.5-.5s.2238576-.5.5-.5h2.218944c.2761424 0 .5.2238576.5.5s-.2238576.5-.5.5zm4.3265143.0440914c-.2761424 0-.5-.2238576-.5-.5 0-.2761423.2238576-.5.5-.5h4.3297783c.2761424 0 .5.2238577.5.5 0 .2761424-.2238576.5-.5.5zm6.3989464.1763658c-.2761424 0-.5-.2238577-.5-.5 0-.2761424.2238576-.5.5-.5h6.2745393c.2761424 0 .5.2238576.5.5 0 .2761423-.2238576.5-.5.5z" fill="#214a65" fill-rule="nonzero" transform="translate(27 53)"/><g transform="translate(48 5)"><path d="m7.12040769.33161946v48.60331064" stroke="#173549" stroke-width="9"/><path d="m3.90020526.35425918 9.59979474 13.69524392-12.58704636 9.4020378 14.39767106 9.1214245-12.42444063 17.1942724" stroke="#214a65" stroke-linecap="round" stroke-linejoin="round" stroke-width="5"/></g><g transform="translate(119 54)"><path d="m14.640357 29.8614932-.7715664-19.6035148 4.6349869-7.02024138 9.4072422-2.02269852 8.0889803 2.02269852 4.6584563 7.02024138-.5599009 11.348907v7.5130798z" fill="#d1d1d1"/><path d="m23.4554572 2.54775428c5.6963619 6.97758387 8.102176 15.70433532 7.2174423 26.18025452-.8847337 10.4759191 2.2591013 10.4759191 9.4315051 0l.7821394-15.9434799-4.2049632-8.78814615-9.0819839-3.3919837z" fill="#aaa"/><path d="m30.5588309 31.344093h8.8542423l3.2267918 10.6042321 4.360135 6.6309641 6.5 8.7310614-.8523721 8.7762278-4.1985522 5.4714213-8.4899006 5.8773708-10.1780263 2.2186247-11.8828497-.5830562-9.48027494-4.6992141-5.72900627-6.5737534-2.34919642-5.137738v-5.3498829l3.28372876-4.5601565 5.54669856-5.3156659 3.61385351-9.1085424 1.6487078-6.9818928z" fill="#fceaa5"/><path d="m29.4589624 31.8707597c5.0241378 15.8151487 8.7199295 25.070322 11.0873749 27.7655198 3.5511682 4.0427968-8.8599907 17.4686925-18.2025768 20.4261288h9.412156c.1627223 0 3.0928626-1.0582607 8.7904208-3.1747821l3.9749104-2.5977481 5.5518996-4.6543215 1.6073737-3.6839297 2.319479-2.2832263v-2.7357106l-1.867542-6.302208-7.6112103-8.2577731-3.4871141-9.9880539-1.7562857-5.4361095z" fill="#f3c745"/><g stroke="#fff" stroke-linecap="round" stroke-width="3"><path d="m9.50940684 61.3167406c.79364986 2.7422803 2.12810956 4.7026814 4.00337886 5.8812031"/><path d="m16.2843557 69.5066273c.1858091.1666667.4846218.3333333.8964382.5"/></g></g><path d="m23.0688524 52.0237347 1.6861041-18.2499134h-7.3999058c-.6809576 6.4146086-3.0082981 11.7094625-6.6825304 16.5281599-.9317892 1.2220267-5.64895027 6.5241964-6.08854786 7.4579738-1.59021203 3.3778714-1.3421248 5.7390733-.09077053 7.7101809.01875984.0295501.4176376.6832191.59925768.9691849.33791232.5320522.69753694 1.0626545 1.10558497 1.6192534 1.12126293 1.5294615 2.42978872 3.0108884 3.96583014 4.3985526 4.8847939 4.4129369 11.0805238 7.0428732 18.8361253 7.0428732s13.9513314-2.6299363 18.8361253-7.0428732c1.5360414-1.3876642 2.8445672-2.8690911 3.9658301-4.3985526.4080481-.5565989.7676727-1.0872012 1.105585-1.6192534.1816201-.2859658.5804979-.9396348.5992577-.9691849 1.2513543-1.9711076 1.4994415-4.3323095-.0907705-7.7101809-.4395976-.9337774-5.1567587-6.2359471-6.0885479-7.4579738-3.6742323-4.8186974-6.0015728-10.1135513-6.6825304-16.5281599h-7.4414329l.5951336 15.1483658c.3995904-.3885371 1.1000813-.4024964 1.4922636.1043973l2.4428724 3.1574006.7629246-1.8509432c.2104643-.5106107.795011-.7539274 1.3056217-.5434631.5106106.2104643.7539273.795011.5434631 1.3056216l-1.421253 3.448124c-.2929721.710784-1.2450087.8388994-1.715456.2308485l-2.1401461-2.7661282-1.1200984 5.9132385c-.1917134 1.0120961-1.6035563 1.1082663-1.9307436.131516l-1.8518184-5.5282227-1.2837567 3.1763399c-.3511676.8688776-1.597286.8207646-1.8804126-.0726034l-.9035894-2.8511545-1.5775197 4.4381868c-.3203577.9012932-1.6017602.8816386-1.8943251-.0290558l-1.1913838-3.7085336-1.0335825 2.2637774c-.2293815.5023968-.822605.7237195-1.3250019.494338-.5023968-.2293815-.7237195-.822605-.494338-1.3250019l2.1057573-4.6120802c.3793554-.8308734 1.5823814-.7601342 1.8617467.1094728zm2.2848736-2.9911976c.4558921-.6156628 1.4955662-.5064914 1.7523843.3038635l.9631953 3.0392329 1.2576868-3.1118363c.3481306-.8613635 1.5802608-.8238572 1.8753552.0570863l.6915276 2.0644134-.691897-17.6113563.0030361-.0001193h-4.4415401zm15.0931819-20.2587158c.0369709-1.6627638.1707345-3.3975086.4052861-5.2128204.232995-1.8032652.3659505-3.4793671.3985031-5.0305464h-24.5013942c.0325526 1.5511793.1655081 3.2272812.3985031 5.0305464.2345516 1.8153118.3683152 3.5500566.4052861 5.2128204zm.4946192-15.2433668c-1.0994596-6.70155147-5.0616484-9.93200855-11.9415271-10.030311-6.8798787.09830245-10.8420675 3.32875953-11.9415271 10.030311zm3.0023844 0h1.5560885v5h-1.2625085c-.025622 1.6912122-.1621943 3.4968473-.4100301 5.4149727-1.3632557 10.5509186.8864165 17.9811384 5.8856346 24.5375337.6872846.9013628 5.759978 6.6031569 6.417194 7.9991915 2.0494522 4.353373 1.6879429 7.7940844-.0907705 10.5958773.0003223-.0005077-.3987507.6534811-.599559.9696593-.3720237.5857616-.7686876 1.1710129-1.218532 1.7846243-1.2360046 1.685975-2.6781802 3.3187115-4.3742274 4.8509254-5.411772 4.8890103-12.3091078 7.8167613-20.8472011 7.8167613s-15.4354291-2.927751-20.8472011-7.8167613c-1.69604718-1.5322139-3.13822281-3.1649504-4.37422738-4.8509254-.44984446-.6136114-.84650828-1.1988627-1.21853201-1.7846243-.20080832-.3161782-.59988129-.970167-.59955897-.9696593-1.77871341-2.8017929-2.14022276-6.2425043-.09077053-10.5958773.65721599-1.3960346 5.7299094-7.0978287 6.41719401-7.9991915 4.99921808-6.5563953 7.24889028-13.9866151 5.88563458-24.5375337-.2478358-1.9181254-.3844081-3.7237605-.4100301-5.4149727h-1.2625085v-5h1.5560885c1.2246174-8.44211981 6.2200145-12.91376142 14.9238258-13.03032001h.0401714c8.7038113.11655859 13.6992084 4.5882002 14.9238258 13.03032001zm-23.5263378 10.0304523c-.2761423 0-.5-.2238576-.5-.5s.2238577-.5.5-.5h2.7109118c.2761423 0 .5.2238576.5.5s-.2238577.5-.5.5zm4.6079811.127154c-.2761424 0-.5-.2238577-.5-.5 0-.2761424.2238576-.5.5-.5h8.9744452c.2761424 0 .5.2238576.5.5 0 .2761423-.2238576.5-.5.5zm10.9500352-.0679862c-.2761424 0-.5-.2238576-.5-.5 0-.2761423.2238576-.5.5-.5h2.4443719c.2761424 0 .5.2238577.5.5 0 .2761424-.2238576.5-.5.5zm-14.97559 2.8753301c-.2761424 0-.5-.2238576-.5-.5s.2238576-.5.5-.5h2.218944c.2761424 0 .5.2238576.5.5s-.2238576.5-.5.5zm4.3265143.0440914c-.2761424 0-.5-.2238576-.5-.5 0-.2761423.2238576-.5.5-.5h4.3297783c.2761424 0 .5.2238577.5.5 0 .2761424-.2238576.5-.5.5zm6.3989464.1763658c-.2761424 0-.5-.2238577-.5-.5 0-.2761424.2238576-.5.5-.5h6.2745393c.2761424 0 .5.2238576.5.5 0 .2761423-.2238576.5-.5.5z" fill="#214a65" fill-rule="nonzero" transform="translate(117 53)"/><g transform="translate(138 5)"><path d="m7.12040769.33161946v48.60331064" stroke="#173549" stroke-width="9"/><path d="m3.90020526.35425918 9.59979474 13.69524392-12.58704636 9.4020378 14.39767106 9.1214245-12.42444063 17.1942724" stroke="#214a65" stroke-linecap="round" stroke-linejoin="round" stroke-width="5"/></g><g transform="translate(209 54)"><path d="m14.640357 29.8614932-.7715664-19.6035148 4.6349869-7.02024138 9.4072422-2.02269852 8.0889803 2.02269852 4.6584563 7.02024138-.5599009 11.348907v7.5130798z" fill="#d1d1d1"/><path d="m23.4554572 2.54775428c5.6963619 6.97758387 8.102176 15.70433532 7.2174423 26.18025452-.8847337 10.4759191 2.2591013 10.4759191 9.4315051 0l.7821394-15.9434799-4.2049632-8.78814615-9.0819839-3.3919837z" fill="#aaa"/><path d="m30.5588309 31.344093h8.8542423l3.2267918 10.6042321 4.360135 6.6309641 6.5 8.7310614-.8523721 8.7762278-4.1985522 5.4714213-8.4899006 5.8773708-10.1780263 2.2186247-11.8828497-.5830562-9.48027494-4.6992141-5.72900627-6.5737534-2.34919642-5.137738v-5.3498829l3.28372876-4.5601565 5.54669856-5.3156659 3.61385351-9.1085424 1.6487078-6.9818928z" fill="#fceaa5"/><path d="m29.4589624 31.8707597c5.0241378 15.8151487 8.7199295 25.070322 11.0873749 27.7655198 3.5511682 4.0427968-8.8599907 17.4686925-18.2025768 20.4261288h9.412156c.1627223 0 3.0928626-1.0582607 8.7904208-3.1747821l3.9749104-2.5977481 5.5518996-4.6543215 1.6073737-3.6839297 2.319479-2.2832263v-2.7357106l-1.867542-6.302208-7.6112103-8.2577731-3.4871141-9.9880539-1.7562857-5.4361095z" fill="#f3c745"/><g stroke="#fff" stroke-linecap="round" stroke-width="3"><path d="m9.50940684 61.3167406c.79364986 2.7422803 2.12810956 4.7026814 4.00337886 5.8812031"/><path d="m16.2843557 69.5066273c.1858091.1666667.4846218.3333333.8964382.5"/></g></g><path d="m23.0688524 52.0237347 1.6861041-18.2499134h-7.3999058c-.6809576 6.4146086-3.0082981 11.7094625-6.6825304 16.5281599-.9317892 1.2220267-5.64895027 6.5241964-6.08854786 7.4579738-1.59021203 3.3778714-1.3421248 5.7390733-.09077053 7.7101809.01875984.0295501.4176376.6832191.59925768.9691849.33791232.5320522.69753694 1.0626545 1.10558497 1.6192534 1.12126293 1.5294615 2.42978872 3.0108884 3.96583014 4.3985526 4.8847939 4.4129369 11.0805238 7.0428732 18.8361253 7.0428732s13.9513314-2.6299363 18.8361253-7.0428732c1.5360414-1.3876642 2.8445672-2.8690911 3.9658301-4.3985526.4080481-.5565989.7676727-1.0872012 1.105585-1.6192534.1816201-.2859658.5804979-.9396348.5992577-.9691849 1.2513543-1.9711076 1.4994415-4.3323095-.0907705-7.7101809-.4395976-.9337774-5.1567587-6.2359471-6.0885479-7.4579738-3.6742323-4.8186974-6.0015728-10.1135513-6.6825304-16.5281599h-7.4414329l.5951336 15.1483658c.3995904-.3885371 1.1000813-.4024964 1.4922636.1043973l2.4428724 3.1574006.7629246-1.8509432c.2104643-.5106107.795011-.7539274 1.3056217-.5434631.5106106.2104643.7539273.795011.5434631 1.3056216l-1.421253 3.448124c-.2929721.710784-1.2450087.8388994-1.715456.2308485l-2.1401461-2.7661282-1.1200984 5.9132385c-.1917134 1.0120961-1.6035563 1.1082663-1.9307436.131516l-1.8518184-5.5282227-1.2837567 3.1763399c-.3511676.8688776-1.597286.8207646-1.8804126-.0726034l-.9035894-2.8511545-1.5775197 4.4381868c-.3203577.9012932-1.6017602.8816386-1.8943251-.0290558l-1.1913838-3.7085336-1.0335825 2.2637774c-.2293815.5023968-.822605.7237195-1.3250019.494338-.5023968-.2293815-.7237195-.822605-.494338-1.3250019l2.1057573-4.6120802c.3793554-.8308734 1.5823814-.7601342 1.8617467.1094728zm2.2848736-2.9911976c.4558921-.6156628 1.4955662-.5064914 1.7523843.3038635l.9631953 3.0392329 1.2576868-3.1118363c.3481306-.8613635 1.5802608-.8238572 1.8753552.0570863l.6915276 2.0644134-.691897-17.6113563.0030361-.0001193h-4.4415401zm15.0931819-20.2587158c.0369709-1.6627638.1707345-3.3975086.4052861-5.2128204.232995-1.8032652.3659505-3.4793671.3985031-5.0305464h-24.5013942c.0325526 1.5511793.1655081 3.2272812.3985031 5.0305464.2345516 1.8153118.3683152 3.5500566.4052861 5.2128204zm.4946192-15.2433668c-1.0994596-6.70155147-5.0616484-9.93200855-11.9415271-10.030311-6.8798787.09830245-10.8420675 3.32875953-11.9415271 10.030311zm3.0023844 0h1.5560885v5h-1.2625085c-.025622 1.6912122-.1621943 3.4968473-.4100301 5.4149727-1.3632557 10.5509186.8864165 17.9811384 5.8856346 24.5375337.6872846.9013628 5.759978 6.6031569 6.417194 7.9991915 2.0494522 4.353373 1.6879429 7.7940844-.0907705 10.5958773.0003223-.0005077-.3987507.6534811-.599559.9696593-.3720237.5857616-.7686876 1.1710129-1.218532 1.7846243-1.2360046 1.685975-2.6781802 3.3187115-4.3742274 4.8509254-5.411772 4.8890103-12.3091078 7.8167613-20.8472011 7.8167613s-15.4354291-2.927751-20.8472011-7.8167613c-1.69604718-1.5322139-3.13822281-3.1649504-4.37422738-4.8509254-.44984446-.6136114-.84650828-1.1988627-1.21853201-1.7846243-.20080832-.3161782-.59988129-.970167-.59955897-.9696593-1.77871341-2.8017929-2.14022276-6.2425043-.09077053-10.5958773.65721599-1.3960346 5.7299094-7.0978287 6.41719401-7.9991915 4.99921808-6.5563953 7.24889028-13.9866151 5.88563458-24.5375337-.2478358-1.9181254-.3844081-3.7237605-.4100301-5.4149727h-1.2625085v-5h1.5560885c1.2246174-8.44211981 6.2200145-12.91376142 14.9238258-13.03032001h.0401714c8.7038113.11655859 13.6992084 4.5882002 14.9238258 13.03032001zm-23.5263378 10.0304523c-.2761423 0-.5-.2238576-.5-.5s.2238577-.5.5-.5h2.7109118c.2761423 0 .5.2238576.5.5s-.2238577.5-.5.5zm4.6079811.127154c-.2761424 0-.5-.2238577-.5-.5 0-.2761424.2238576-.5.5-.5h8.9744452c.2761424 0 .5.2238576.5.5 0 .2761423-.2238576.5-.5.5zm10.9500352-.0679862c-.2761424 0-.5-.2238576-.5-.5 0-.2761423.2238576-.5.5-.5h2.4443719c.2761424 0 .5.2238577.5.5 0 .2761424-.2238576.5-.5.5zm-14.97559 2.8753301c-.2761424 0-.5-.2238576-.5-.5s.2238576-.5.5-.5h2.218944c.2761424 0 .5.2238576.5.5s-.2238576.5-.5.5zm4.3265143.0440914c-.2761424 0-.5-.2238576-.5-.5 0-.2761423.2238576-.5.5-.5h4.3297783c.2761424 0 .5.2238577.5.5 0 .2761424-.2238576.5-.5.5zm6.3989464.1763658c-.2761424 0-.5-.2238577-.5-.5 0-.2761424.2238576-.5.5-.5h6.2745393c.2761424 0 .5.2238576.5.5 0 .2761423-.2238576.5-.5.5z" fill="#214a65" fill-rule="nonzero" transform="translate(207 53)"/><g transform="translate(228 5)"><path d="m7.12040769.33161946v48.60331064" stroke="#173549" stroke-width="9"/><path d="m3.90020526.35425918 9.59979474 13.69524392-12.58704636 9.4020378 14.39767106 9.1214245-12.42444063 17.1942724" stroke="#214a65" stroke-linecap="round" stroke-linejoin="round" stroke-width="5"/></g><path d="m.43286558 1.29448417h287.95543242" stroke="#214a65" stroke-linecap="round" stroke-width="5" transform="translate(3 2)"/></g></svg>