<svg height="670" viewBox="0 0 1440 670" width="1440" xmlns="http://www.w3.org/2000/svg"><g fill="none" fill-rule="evenodd"><path d="m1439 592.486313c-26.92655 2.322445 232.57588 0-86.21094 0-212.52454 0-663.454229 0-1352.78906 0v-79.046467c99.2179445-110.02285 224.217945-160.367129 375-151.032837 189 11.700205 217.4777-61.785493 399.32264-223.192268 217.67736-193.2118695 550.53247-160.2503099 670.67736-51.3674514 1 200.4535544 1 504.0352654-6 504.6390234z" fill="#fcf0db" transform="translate(-5)"/><g transform="translate(-1 575)"><path d="m0 0h1356.59949 83.40051v95h-1440z" fill="#fef7eb"/><g stroke="#2a4a63" stroke-linecap="round" stroke-width="4" transform="matrix(1 0 0 -1 53 1)"><path d="m.48444613.5h1276.03110387"/><path d="m1292.47826.5h19.02174"/><path d="m1326.35542.5h5.93791"/></g></g></g></svg>